<svg version="1.1" id="Layer_1" xmlns="http://www.w3.org/2000/svg" xmlns:xlink="http://www.w3.org/1999/xlink" x="0px" y="0px" viewBox="0 0 422 422" style="enable-background:new 0 0 422 422;" xml:space="preserve"><title>Logo</title> <g id="Layer_2_1_"> <g id="Layer_1-2"> <path d="M211,0C94.5,0,0,94.5,0,211s94.5,211,211,211s211-94.5,211-211S327.5,0,211,0z M163,317L163,317c-21.5,0-39-17.5-39-39
 V106h39V317z M208,278c0,21.5-17.5,39-39,39l0,0v-67c0-21.5,17.5-39,39-39l0,0V278z M253,317L253,317c-21.5,0-39-17.5-39-39v-67
 l0,0c21.5,0,39,17.5,39,39V317z M298,278c0,21.5-17.5,39-39,39l0,0V159h39V278z" fill="white"></path> </g> </g> </svg>
